<!DOCTYPE svg PUBLIC "-//W3C//DTD SVG 1.1//EN" "http://www.w3.org/Graphics/SVG/1.1/DTD/svg11.dtd">

<!-- Uploaded to: SVG Repo, www.svgrepo.com, Transformed by: SVG Repo Mixer Tools -->
<svg fill="#ffffff" height="800px" width="800px" version="1.1" id="XMLID_35_" xmlns="http://www.w3.org/2000/svg" xmlns:xlink="http://www.w3.org/1999/xlink" viewBox="0 0 24 24" xml:space="preserve" stroke="#ffffff">

<g id="SVGRepo_bgCarrier" stroke-width="0"/>

<g id="SVGRepo_tracerCarrier" stroke-linecap="round" stroke-linejoin="round"/>

<g id="SVGRepo_iconCarrier"> <g id="document-video"> <g> <polygon points="24,24 19,24 19,22 22,22 22,6.4 17.6,2 6,2 6,9 4,9 4,0 18.4,0 24,5.6 "/> </g> <g> <polygon points="23,8 16,8 16,2 18,2 18,6 23,6 "/> </g> <g> <path d="M17,23.8l-5-3V23H0V11h12v2.2l5-3V23.8z M2,21h8v-8H2V21z M12,18.4l3,1.8v-6.5l-3,1.8V18.4z"/> </g> </g> </g>

</svg>